<svg width="20" height="20" viewBox="0 0 20 20" fill="none" xmlns="http://www.w3.org/2000/svg">
<g clip-path="url(#clip0_3_577)">
<path d="M0 2C0 0.895431 0.895431 0 2 0H18C19.1046 0 20 0.895431 20 2V18C20 19.1046 19.1046 20 18 20H2C0.895431 20 0 19.1046 0 18V2Z" fill="white"/>
<path fill-rule="evenodd" clip-rule="evenodd" d="M0 0V20H20V0H0Z" fill="#F7FCFF"/>
<mask id="mask0_3_577" style="mask-type:luminance" maskUnits="userSpaceOnUse" x="0" y="0" width="20" height="20">
<path fill-rule="evenodd" clip-rule="evenodd" d="M0 0V20H20V0H0Z" fill="white"/>
</mask>
<g mask="url(#mask0_3_577)">
<path fill-rule="evenodd" clip-rule="evenodd" d="M0 0V6.66667H20V0H0Z" fill="#BF2714"/>
<path fill-rule="evenodd" clip-rule="evenodd" d="M0 13.3334V20H20V13.3334H0Z" fill="#272727"/>
<path d="M7.6627 8.51685L8.28705 8.55501L8.13033 13.1132L7.50598 13.075L7.6627 8.51685Z" fill="#C09302"/>
<path d="M8.31505 8.7998L8.93905 8.84684L8.78233 12.5429L8.15833 12.4959L8.31505 8.7998Z" fill="#C09302"/>
<path d="M8.96779 9.07654L9.59069 9.14469L9.43397 11.6914L8.81107 11.6232L8.96779 9.07654Z" fill="#C09302"/>
<path d="M12.3373 8.51685L11.713 8.55501L11.8697 13.1132L12.494 13.075L12.3373 8.51685Z" fill="#C09302"/>
<path d="M11.685 8.7998L11.061 8.84684L11.2177 12.5429L11.8417 12.4959L11.685 8.7998Z" fill="#C09302"/>
<path d="M11.0322 9.07654L10.4093 9.14469L10.566 11.6914L11.1889 11.6232L11.0322 9.07654Z" fill="#C09302"/>
<path d="M9.98333 12.7721L9.37411 12.586L9.63197 11.0854L10.2412 11.2716L9.98333 12.7721Z" fill="#C09302"/>
<path d="M10.4497 12.7721L11.0589 12.586L10.801 11.0854L10.1918 11.2716L10.4497 12.7721Z" fill="#C09302"/>
<path d="M10.2951 12.7584H9.6701V11.2852H10.2951V12.7584Z" fill="#C09302"/>
<path d="M9.14673 9.09424L9.77155 9.11467L9.73504 11.0988L9.11023 11.0783L9.14673 9.09424Z" fill="#C09302"/>
<path d="M10.2337 9.09424L10.8585 9.11467L10.822 11.0988L10.1972 11.0783L10.2337 9.09424Z" fill="#C09302"/>
<path d="M8.33621 13.269L8.49853 12.4642C9.16168 12.702 9.67088 12.8196 10.0181 12.8196C10.3653 12.8196 10.8745 12.702 11.5377 12.4642L11.7 13.269C10.9885 13.5241 10.4305 13.653 10.0181 13.653C9.60566 13.653 9.0477 13.5241 8.33621 13.269Z" fill="#C09302"/>
<path d="M7.67646 8.51884C7.63479 7.96834 7.87644 7.59569 8.28598 7.64322C8.42064 7.65884 8.57189 7.71196 8.77333 7.80309C8.83219 7.83001 8.83219 7.83001 8.88939 7.85701C9.16632 7.98834 9.24152 8.0221 9.25713 8.02654C9.19577 8.00801 9.3765 7.57237 9.41795 7.49894C9.42286 7.54557 9.40205 7.53894 9.35209 7.5256L8.78832 7.37516L9.18964 6.8262C9.32992 6.63432 9.51673 6.53917 9.72991 6.53917C9.75201 6.53917 9.77263 6.5378 9.84035 6.53224C9.89044 6.52818 9.89044 6.52818 9.94675 6.52507C10.3367 6.50822 10.6164 6.65526 10.6164 7.18997C10.6164 7.38127 10.6345 7.68889 10.6644 7.92227C10.6745 8.00077 10.6939 8.07426 10.6366 8.10653C10.639 8.07868 10.7756 8.00681 10.988 7.88837L11.0135 7.87416C11.6306 7.53071 11.7027 7.49885 11.9016 7.66005C12.0342 7.76748 12.1604 7.9607 12.3019 8.2488L11.779 8.70521C11.6877 8.51939 11.6151 8.40664 11.5805 8.37515C11.6591 8.44798 11.3943 8.56523 11.2542 8.6432L11.2291 8.65718C10.7486 8.92511 10.6853 8.95707 10.5479 8.95707C10.174 8.95707 10.0398 8.44644 10.003 7.71515C9.88766 8.22146 9.54349 8.86042 9.25988 8.86042C9.13573 8.86042 9.19542 8.88661 8.67995 8.64216C8.62594 8.61667 8.62594 8.61667 8.57253 8.59224C8.41637 8.5216 8.30371 8.48197 8.23264 8.47351C8.23557 8.46904 8.24604 8.45403 8.25778 8.44062L7.67646 8.51884Z" fill="#C09302"/>
</g>
</g>
<defs>
<clipPath id="clip0_3_577">
<path d="M0 2C0 0.895431 0.895431 0 2 0H18C19.1046 0 20 0.895431 20 2V18C20 19.1046 19.1046 20 18 20H2C0.895431 20 0 19.1046 0 18V2Z" fill="white"/>
</clipPath>
</defs>
</svg>
