<svg width="24" height="24" viewBox="0 0 24 24" fill="none" xmlns="http://www.w3.org/2000/svg">
<path d="M15.2042 1.79395C16.3888 1.0896 17.8501 1.0675 19.0548 1.73633C19.5544 2.01376 20.0099 2.48008 20.6876 3.17285C20.7182 3.20407 20.7499 3.23641 20.7814 3.26855C20.812 3.29988 20.8424 3.33091 20.8722 3.36133C21.5524 4.05574 22.0081 4.52024 22.2784 5.02832C22.927 6.2474 22.9054 7.72239 22.2218 8.92188C21.9369 9.42184 21.4685 9.87322 20.7687 10.5469C20.738 10.5764 20.7065 10.6063 20.6749 10.6367L11.2706 19.6943C11.2298 19.7336 11.1894 19.7731 11.1495 19.8115C9.76885 21.1418 8.9178 21.9622 7.84094 22.3828C6.76249 22.804 5.58963 22.7726 3.6925 22.7227C3.63754 22.7212 3.58171 22.7202 3.52551 22.7188L3.2052 22.71C2.92729 22.7028 2.64614 22.6959 2.41418 22.6572C2.14769 22.6127 1.83157 22.5098 1.58118 22.2256C1.33299 21.9439 1.26893 21.619 1.25403 21.3516C1.24086 21.1151 1.26304 20.8315 1.28528 20.5469L1.31555 20.1611C1.31919 20.1144 1.32274 20.0682 1.32629 20.0225C1.45558 18.3599 1.53435 17.3427 1.93567 16.4189C2.33753 15.4942 3.02471 14.7511 4.14465 13.5381C4.17567 13.5045 4.20672 13.4699 4.2384 13.4355L13.5226 3.37695C13.553 3.344 13.5829 3.3113 13.6124 3.2793C14.2703 2.56609 14.7128 2.08619 15.2042 1.79395ZM22.0001 21.25C22.4143 21.25 22.7501 21.5858 22.7501 22C22.7501 22.4142 22.4143 22.75 22.0001 22.75H14.0001C13.5859 22.75 13.2501 22.4142 13.2501 22C13.2501 21.5858 13.5859 21.25 14.0001 21.25H22.0001ZM5.34094 14.4531C4.09711 15.8008 3.60016 16.3528 3.31165 17.0166C3.0226 17.6819 2.95453 18.4318 2.81067 20.2783L2.7843 20.624C2.76298 20.8977 2.75052 21.0682 2.75012 21.1885C2.78838 21.1921 2.83465 21.1953 2.89075 21.1982C2.99921 21.2039 3.12581 21.2077 3.28528 21.2119L3.56458 21.2188C5.68409 21.2742 6.53297 21.2829 7.29504 20.9854C8.05884 20.687 8.68805 20.1 10.2306 18.6143L18.545 10.6055L13.5245 5.58496L5.34094 14.4531ZM18.3263 3.04785C17.5886 2.63833 16.6969 2.65218 15.9708 3.08398C15.6925 3.24955 15.4071 3.54734 14.6251 4.39453L14.5431 4.48242L19.6251 9.56445L19.6339 9.55664C20.4624 8.75872 20.7556 8.46654 20.9191 8.17969C21.3478 7.42748 21.3612 6.49862 20.9542 5.7334C20.7989 5.44151 20.5143 5.13991 19.7091 4.31738C18.9029 3.49381 18.6091 3.20485 18.3263 3.04785Z" fill="#161616"/>
</svg>
