<svg width="18" height="18" viewBox="0 0 18 18" fill="none" xmlns="http://www.w3.org/2000/svg">
<path d="M9 17.0625C8.6925 17.0625 8.4375 16.8075 8.4375 16.5V14.8125H6.75C6.4425 14.8125 6.1875 14.5575 6.1875 14.25C6.1875 13.9425 6.4425 13.6875 6.75 13.6875H8.4375V11.0326C5.91 10.7551 3.9375 8.6025 3.9375 6C3.9375 3.21 6.21 0.9375 9 0.9375C11.79 0.9375 14.0625 3.21 14.0625 6C14.0625 8.6025 12.09 10.7476 9.5625 11.0326V13.6875H11.25C11.5575 13.6875 11.8125 13.9425 11.8125 14.25C11.8125 14.5575 11.5575 14.8125 11.25 14.8125H9.5625V16.5C9.5625 16.8075 9.3075 17.0625 9 17.0625ZM9 2.0625C6.825 2.0625 5.0625 3.825 5.0625 6C5.0625 8.175 6.825 9.9375 9 9.9375C11.175 9.9375 12.9375 8.175 12.9375 6C12.9375 3.825 11.175 2.0625 9 2.0625Z" fill="#DA5280"/>
</svg>
