<svg width="24" height="24" viewBox="0 0 24 24" fill="none" xmlns="http://www.w3.org/2000/svg">
<path d="M12.5996 2.25C13.1092 2.25 13.611 2.28437 14.1016 2.35156C14.5119 2.40778 14.7994 2.78688 14.7432 3.19727C14.6867 3.60735 14.3086 3.89397 13.8984 3.83789C13.4751 3.7799 13.041 3.75 12.5996 3.75C7.66574 3.7502 3.75 7.48863 3.75 12C3.75 16.5114 7.66574 20.2498 12.5996 20.25C13.041 20.25 13.4751 20.2201 13.8984 20.1621C14.3086 20.106 14.6867 20.3927 14.7432 20.8027C14.7994 21.2131 14.5119 21.5922 14.1016 21.6484C13.611 21.7156 13.1092 21.75 12.5996 21.75C6.92997 21.7498 2.25 17.4295 2.25 12C2.25 6.57049 6.92997 2.2502 12.5996 2.25ZM12.9775 8.96191C13.2746 8.67349 13.7495 8.68061 14.0381 8.97754C14.3265 9.27458 14.3194 9.74948 14.0225 10.0381C13.8609 10.1951 13.6039 10.3968 13.3594 10.5889C13.3406 10.6036 13.3217 10.6189 13.3027 10.6338C13.057 10.8267 12.7936 11.0335 12.5449 11.2441C12.5426 11.2461 12.5404 11.2481 12.5381 11.25H21C21.4142 11.25 21.75 11.5858 21.75 12C21.75 12.4142 21.4142 12.75 21 12.75H12.5381C12.5404 12.7519 12.5426 12.7539 12.5449 12.7559C12.7936 12.9665 13.057 13.1733 13.3027 13.3662C13.3217 13.3811 13.3406 13.3964 13.3594 13.4111C13.6039 13.6032 13.8609 13.8049 14.0225 13.9619C14.3194 14.2505 14.3265 14.7254 14.0381 15.0225C13.7495 15.3194 13.2746 15.3265 12.9775 15.0381C12.8863 14.9494 12.704 14.803 12.4326 14.5898C12.4131 14.5745 12.3932 14.5588 12.373 14.543C12.1309 14.3529 11.8463 14.1301 11.5752 13.9004C11.2849 13.6544 10.9835 13.3788 10.749 13.1035C10.6316 12.9656 10.5153 12.8098 10.4258 12.6426C10.3394 12.4811 10.25 12.2583 10.25 12C10.25 11.7417 10.3394 11.5189 10.4258 11.3574C10.5153 11.1902 10.6316 11.0344 10.749 10.8965C10.9835 10.6212 11.2849 10.3456 11.5752 10.0996C11.8463 9.86988 12.1309 9.6471 12.373 9.45703C12.3932 9.4412 12.4131 9.42552 12.4326 9.41016C12.704 9.19696 12.8863 9.05062 12.9775 8.96191Z" fill="white"/>
</svg>
