<svg width="18" height="18" viewBox="0 0 18 18" fill="none" xmlns="http://www.w3.org/2000/svg">
<path d="M11.25 1.6875C14.04 1.6875 16.3125 3.96 16.3125 6.75C16.3125 9.54 14.04 11.8125 11.25 11.8125C10.0563 11.8125 8.9586 11.3948 8.0918 10.7002L3.66016 15.1328C4.01265 15.1853 4.51507 15.1855 5.25 15.1855H6.75C7.05747 15.1855 7.31244 15.4406 7.3125 15.748C7.3125 16.0555 7.0575 16.3105 6.75 16.3105H5.25C3.7275 16.3105 2.89461 16.3106 2.28711 15.7031C1.68734 15.1031 1.6875 14.2704 1.6875 12.748V11.248C1.68756 10.9406 1.94253 10.6855 2.25 10.6855C2.55747 10.6855 2.81244 10.9406 2.8125 11.248V12.748C2.8125 13.4829 2.81277 13.9854 2.86523 14.3379L7.29688 9.90527C6.60384 9.03897 6.1875 7.94227 6.1875 6.75C6.1875 3.96 8.46 1.6875 11.25 1.6875ZM11.25 2.8125C9.075 2.8125 7.3125 4.575 7.3125 6.75C7.3125 8.925 9.075 10.6875 11.25 10.6875C13.425 10.6875 15.1875 8.925 15.1875 6.75C15.1875 4.575 13.425 2.8125 11.25 2.8125Z" fill="#1849A9"/>
</svg>
