<svg width="24" height="24" viewBox="0 0 24 24" fill="none" xmlns="http://www.w3.org/2000/svg">
<path d="M12.0557 1.25C13.6583 1.24998 14.9373 1.2499 15.9404 1.38477C16.9767 1.52409 17.8298 1.81998 18.5049 2.49512C19.18 3.17025 19.4759 4.02332 19.6152 5.05957C19.7501 6.06266 19.75 7.34174 19.75 8.94434V15.0557C19.75 16.6583 19.7501 17.9373 19.6152 18.9404C19.4759 19.9767 19.18 20.8298 18.5049 21.5049C17.8298 22.18 16.9767 22.4759 15.9404 22.6152C14.9373 22.7501 13.6583 22.75 12.0557 22.75H11.9443C10.3417 22.75 9.06266 22.7501 8.05957 22.6152C7.02332 22.4759 6.17025 22.18 5.49512 21.5049C4.81999 20.8298 4.52409 19.9767 4.38477 18.9404C4.2499 17.9373 4.24998 16.6583 4.25 15.0557V8.94434C4.24998 7.34174 4.2499 6.06266 4.38477 5.05957C4.52409 4.02332 4.81998 3.17025 5.49512 2.49512C6.17025 1.81998 7.02332 1.52409 8.05957 1.38477C9.06266 1.2499 10.3417 1.24998 11.9443 1.25H12.0557ZM15.6172 2.85645C15.5374 3.33254 15.465 3.75 15.3652 4.08984C15.2461 4.49551 15.0673 4.87674 14.7236 5.18164C14.3682 5.49683 13.959 5.62981 13.5205 5.69043C13.107 5.74758 12.5966 5.74805 12.002 5.74805C11.4072 5.74805 10.896 5.74759 10.4824 5.69043C10.044 5.6298 9.63473 5.49685 9.2793 5.18164C8.93564 4.87674 8.7568 4.49552 8.6377 4.08984C8.53794 3.74996 8.46452 3.33261 8.38477 2.85645C8.34253 2.86147 8.30077 2.86558 8.25977 2.87109C7.38983 2.98805 6.90565 3.20568 6.55566 3.55566C6.20568 3.90565 5.98805 4.38983 5.87109 5.25977C5.75128 6.15123 5.75 7.32908 5.75 9V15C5.75 16.6709 5.75128 17.8488 5.87109 18.7402C5.98805 19.6102 6.20568 20.0944 6.55566 20.4443C6.90565 20.7943 7.38983 21.0119 8.25977 21.1289C9.15123 21.2487 10.3291 21.25 12 21.25C13.6709 21.25 14.8488 21.2487 15.7402 21.1289C16.6102 21.0119 17.0943 20.7943 17.4443 20.4443C17.7943 20.0944 18.0119 19.6102 18.1289 18.7402C18.2487 17.8488 18.25 16.6709 18.25 15V9C18.25 7.32908 18.2487 6.15123 18.1289 5.25977C18.0119 4.38983 17.7943 3.90565 17.4443 3.55566C17.0943 3.20568 16.6102 2.98805 15.7402 2.87109C15.6999 2.86567 15.6588 2.8614 15.6172 2.85645ZM13 18.25C13.4142 18.25 13.75 18.5858 13.75 19C13.75 19.4142 13.4142 19.75 13 19.75H11C10.5858 19.75 10.25 19.4142 10.25 19C10.25 18.5858 10.5858 18.25 11 18.25H13ZM12 2.75C11.1889 2.75 10.494 2.75056 9.8916 2.76465C9.95992 3.16482 10.0127 3.4473 10.0771 3.66699C10.1537 3.9278 10.2213 4.01247 10.2744 4.05957C10.3328 4.11137 10.4244 4.1676 10.6885 4.2041C10.9778 4.24405 11.3732 4.24805 12.002 4.24805C12.6304 4.24804 13.0252 4.24402 13.3145 4.2041C13.5785 4.16761 13.6701 4.11136 13.7285 4.05957C13.7816 4.01247 13.8492 3.92778 13.9258 3.66699C13.9902 3.44733 14.042 3.16472 14.1104 2.76465C13.5075 2.75051 12.812 2.75 12 2.75Z" fill="white"/>
</svg>
