<svg width="343" height="263" viewBox="0 0 343 263" fill="none" xmlns="http://www.w3.org/2000/svg">
<g clip-path="url(#clip0_1_124)">
<path d="M187.185 15.3282L184.138 21.4545H213.292L216.364 15.3282H187.185ZM180.84 28.0597L177.643 34.4381H186.102L189.274 28.0597H180.84ZM195.04 41.0434L191.968 47.1696L127.643 174.333H95.1659L4.68277 0H4.05336C2.6435 2.34461 1.28398 4.73965 0 7.1599L89.7782 180.46H133.081L200.327 47.1444L203.398 41.0182H195.04V41.0434ZM201.585 28.0597L198.338 34.4381H206.721L209.919 28.0597H201.585ZM174.672 41.0434V40.4383L171.299 47.1696L113.494 162.989H109.567L38.3181 21.4545H50.0754L110.825 144.61L166.565 32.1187L168.58 28.0597L171.878 21.4545L174.899 15.3282H166.465L110.825 127.618L55.5134 15.3282H26.6364L104.204 169.09H118.655L179.733 47.1444L182.804 41.0182H174.672V41.0434ZM180.84 28.0597L177.643 34.4381H186.102L189.274 28.0597H180.84Z" fill="url(#paint0_linear_1_124)"/>
<path d="M172.557 174.308V155.904L280.211 41.0182H195.015L191.943 47.1444H264.576L164.728 153.787V180.46H340.18C341.137 178.418 342.094 176.376 342.975 174.308H172.557ZM174.672 41.0434V40.4383L171.299 47.1696H179.707L182.779 41.0434H174.647H174.672ZM224.873 148.366L325.326 41.5224V15.3282H166.54V21.4545H317.497V39.6316L209.239 154.518H321.701V161.35H196.903V154.039L300.654 43.4132V28.085H180.84L177.643 34.4633H292.824V41.2955L188.796 152.173V167.476H329.506V148.366H224.848H224.873ZM166.565 28.0597V32.1187L168.58 28.0597H166.565Z" fill="url(#paint1_linear_1_124)"/>
<path d="M13.9474 261.261L4.90918 233.504H8.78631L13.1166 247.193C14.2999 250.95 15.3321 254.328 16.0874 257.58H16.1629C16.9434 254.378 18.1015 250.874 19.3351 247.244L24.0179 233.529H27.8447L17.9253 261.286H13.9726L13.9474 261.261Z" fill="#DA5280" stroke="#DA5280" stroke-width="0.32" stroke-miterlimit="10"/>
<path d="M91.6662 235.722C91.7166 236.958 90.8102 237.941 89.35 237.941C88.066 237.941 87.1597 236.958 87.1597 235.722C87.1597 234.487 88.1164 233.453 89.4255 233.453C90.7347 233.453 91.641 234.436 91.641 235.722H91.6662ZM87.638 261.261V241.319H91.2634V261.261H87.638Z" fill="#DA5280" stroke="#DA5280" stroke-width="0.32" stroke-miterlimit="10"/>
<path d="M155.009 233.857C156.57 233.529 159.038 233.277 161.555 233.277C165.13 233.277 167.446 233.882 169.158 235.294C170.593 236.378 171.449 238.016 171.449 240.184C171.449 242.857 169.687 245.201 166.767 246.286V246.361C169.41 247.017 172.482 249.21 172.482 253.319C172.482 255.714 171.525 257.53 170.14 258.891C168.202 260.656 165.08 261.488 160.548 261.488C158.081 261.488 156.193 261.311 154.984 261.16V233.857H155.009ZM158.584 245.227H161.832C165.609 245.227 167.849 243.26 167.849 240.563C167.849 237.31 165.382 236.025 161.757 236.025C160.12 236.025 159.163 236.151 158.584 236.277V245.227ZM158.584 258.538C159.289 258.664 160.322 258.714 161.58 258.714C165.281 258.714 168.705 257.353 168.705 253.319C168.705 249.538 165.458 247.975 161.555 247.975H158.584V258.563V258.538Z" fill="#DA5280" stroke="#DA5280" stroke-width="0.32" stroke-miterlimit="10"/>
<path d="M233.005 259.143L248.388 236.605V236.478H234.314V233.478H253.045V235.672L237.738 258.135V258.261H253.247V261.261H233.005V259.168V259.143Z" fill="#DA5280" stroke="#DA5280" stroke-width="0.32" stroke-miterlimit="10"/>
<path d="M338.09 247.092C338.09 256.647 332.3 261.715 325.225 261.715C318.151 261.715 312.763 256.017 312.763 247.622C312.763 238.798 318.226 233.05 325.628 233.05C333.03 233.05 338.09 238.848 338.09 247.092ZM316.59 247.546C316.59 253.471 319.787 258.79 325.427 258.79C331.066 258.79 334.314 253.546 334.314 247.244C334.314 241.722 331.444 235.949 325.477 235.949C319.51 235.949 316.59 241.42 316.59 247.521V247.546Z" fill="#DA5280" stroke="#DA5280" stroke-width="0.32" stroke-miterlimit="10"/>
</g>
<defs>
<linearGradient id="paint0_linear_1_124" x1="-0.00117352" y1="89.9281" x2="159.176" y2="-5.48035" gradientUnits="userSpaceOnUse">
<stop stop-color="#AAD7F3"/>
<stop offset="1" stop-color="#DA5280"/>
</linearGradient>
<linearGradient id="paint1_linear_1_124" x1="164.727" y1="97.6179" x2="302.775" y2="23.1235" gradientUnits="userSpaceOnUse">
<stop stop-color="#DA5280"/>
<stop offset="1" stop-color="#AAD7F3"/>
</linearGradient>
<clipPath id="clip0_1_124">
<rect width="343" height="262.118" fill="white"/>
</clipPath>
</defs>
</svg>
